<?xml version="1.0" encoding="UTF-8"?><svg id="Layer_2" xmlns="http://www.w3.org/2000/svg" viewBox="0 0 1773.53 1773.28"><defs><style>.cls-1{fill:#4b95d1;}</style></defs><g id="KS_varemærke"><path class="cls-1" d="m1680.62,1231.99c59.93,59.93,92.91,139.61,92.91,224.32s-32.98,164.39-92.91,224.32c-61.85,61.77-143.04,92.66-224.23,92.66-40.68,0-81.27-7.7-119.44-23.18-38.17-15.4-73.91-38.67-104.88-69.56l-296.55-296.47c-26.87-26.87-70.64-26.87-97.51,0l-296.47,296.47c-61.85,61.85-143.04,92.74-224.32,92.74s-162.38-30.89-224.23-92.74C33.06,1620.61,0,1540.93,0,1456.22L.08,317.23C.08,232.52,33.06,152.92,92.99,92.91c123.71-123.63,324.93-123.63,448.55,0,58.51,58.51,91.49,136.1,92.82,218.54.17,3.68.17,7.2.08,10.71v716.14c0,48.55-39.34,87.89-87.89,87.89s-87.89-39.34-87.89-87.89V314.21c-.67-36.49-15.4-70.98-41.43-97.01-55.08-55.08-144.8-55.08-199.96,0-26.7,26.78-41.43,62.27-41.43,100.02v1142.26c.75,36.58,15.4,70.81,41.43,96.76,55.08,55.16,144.8,55.16,199.96,0,.25-.25.5-.5.75-.75l295.71-295.71c95.42-95.42,250.68-95.42,346.1,0l296.55,296.47c26.7,26.78,62.19,41.43,100.02,41.43s73.24-14.65,99.94-41.43c26.7-26.7,41.43-62.19,41.43-99.94s-14.73-73.32-41.43-100.02l-564.39-564.39c-126.47-126.47-126.47-332.21-.08-458.68l240.22-240.3C1292,32.98,1371.69,0,1456.39,0s164.3,32.98,224.23,92.91c59.93,59.93,92.91,139.61,92.91,224.32,0,42.35-8.29,83.45-24.02,121.45-15.74,38-38.92,72.82-68.89,102.78l-128.56,128.56c-17.16,17.16-39.59,25.78-62.11,25.78s-45.03-8.62-62.19-25.78c-34.32-34.32-34.32-89.98,0-124.3l128.56-128.56h.08c26.62-26.7,41.35-62.19,41.35-99.94s-14.73-73.32-41.43-100.02c-26.7-26.7-62.19-41.43-99.94-41.43s-73.32,14.73-100.02,41.43l-240.14,240.22c-57.92,58-57.92,152.25,0,210.17l564.39,564.39Z"/></g></svg>
